<svg width="192" height="242" viewBox="0 0 192 242" fill="none" xmlns="http://www.w3.org/2000/svg">
<mask id="mask0_2020_202" style="mask-type:luminance" maskUnits="userSpaceOnUse" x="0" y="77" width="82" height="143">
<path d="M1.50749 85.3248C-0.994419 96.7932 0.171723 195.348 1.07451 206.751C1.69831 215.13 5.23021 220.023 15.0515 219.828C83.5783 218.726 101.552 135.672 59.2265 96.5845C52.4495 90.3342 44.1916 85.1976 34.251 81.7081C29.2572 79.9449 21.0194 77.3872 13.9936 77.3872C7.97204 77.3872 2.81982 79.2988 1.50749 85.3248Z" fill="white"/>
</mask>
<g mask="url(#mask0_2020_202)">
<path d="M1.50749 85.3248C-0.994419 96.7932 0.171723 195.348 1.07451 206.751C1.69831 215.13 5.23021 220.023 15.0515 219.828C83.5783 218.726 101.552 135.672 59.2265 96.5845C52.4495 90.3342 44.1916 85.1976 34.251 81.7081C29.2572 79.9449 21.0194 77.3872 13.9936 77.3872C7.97204 77.3872 2.81982 79.2988 1.50749 85.3248Z" fill="url(#paint0_linear_2020_202)"/>
</g>
<mask id="mask1_2020_202" style="mask-type:luminance" maskUnits="userSpaceOnUse" x="83" y="0" width="76" height="130">
<path d="M85.279 7.23901C83.0192 17.6182 84.095 107.102 84.8817 117.479C85.472 125.064 88.6591 129.498 97.5754 129.368C159.808 128.329 176.157 52.9183 137.723 17.4386C131.57 11.7719 124.012 7.10285 115.06 3.94814C110.509 2.32781 103.045 0 96.6603 0C91.1454 0 86.4875 1.78436 85.279 7.23901Z" fill="white"/>
</mask>
<g mask="url(#mask1_2020_202)">
<path d="M85.279 7.23901C83.0192 17.6182 84.095 107.102 84.8817 117.479C85.472 125.064 88.6591 129.498 97.5754 129.368C159.808 128.329 176.157 52.9183 137.723 17.4386C131.57 11.7719 124.012 7.10285 115.06 3.94814C110.509 2.32781 103.045 0 96.6603 0C91.1454 0 86.4875 1.78436 85.279 7.23901Z" fill="url(#paint1_linear_2020_202)"/>
</g>
<mask id="mask2_2020_202" style="mask-type:luminance" maskUnits="userSpaceOnUse" x="97" y="78" width="95" height="164">
<path d="M99.2817 87.7754C96.4003 100.849 97.793 213.266 98.7962 226.304C99.5651 235.887 103.528 241.408 114.722 241.242C192.934 239.996 213.49 145.213 165.205 100.615C157.482 93.4934 147.961 87.6181 136.721 83.6621C130.977 81.6211 121.577 78.7119 113.6 78.7119C106.686 78.7119 100.786 80.9013 99.2817 87.7754Z" fill="white"/>
</mask>
<g mask="url(#mask2_2020_202)">
<path d="M99.2817 87.7754C96.4003 100.849 97.793 213.266 98.7962 226.304C99.5651 235.887 103.528 241.408 114.722 241.242C192.934 239.996 213.49 145.213 165.205 100.615C157.482 93.4934 147.961 87.6181 136.721 83.6621C130.977 81.6211 121.577 78.7119 113.6 78.7119C106.686 78.7119 100.786 80.9013 99.2817 87.7754Z" fill="url(#paint2_linear_2020_202)"/>
</g>
<defs>
<linearGradient id="paint0_linear_2020_202" x1="82.4626" y1="149.24" x2="-2.25345" y2="148.433" gradientUnits="userSpaceOnUse">
<stop stop-color="#F47920"/>
<stop offset="0.1" stop-color="#F47920"/>
<stop offset="0.44066" stop-color="#F47920"/>
<stop offset="1" stop-color="#C9242B"/>
</linearGradient>
<linearGradient id="paint1_linear_2020_202" x1="84.1016" y1="64.5345" x2="159.991" y2="65.2579" gradientUnits="userSpaceOnUse">
<stop stop-color="#15B1E7"/>
<stop offset="1" stop-color="#0060AF"/>
</linearGradient>
<linearGradient id="paint2_linear_2020_202" x1="89.5418" y1="159.772" x2="201.601" y2="160.84" gradientUnits="userSpaceOnUse">
<stop stop-color="#8CC63F"/>
<stop offset="0.378511" stop-color="#8CC63F"/>
<stop offset="1" stop-color="#009559"/>
</linearGradient>
</defs>
</svg>
